<svg version="1.1" id="Layer_1" xmlns="http://www.w3.org/2000/svg" xmlns:xlink="http://www.w3.org/1999/xlink" x="0px" y="0px"
	 width="100%" viewBox="0 0 1403 287" enable-background="new 0 0 1403 287" xml:space="preserve">
<path fill="#000000" opacity="1.000000" stroke="none" 
	d="
M1028.000000,288.000000 
	C685.333374,288.000000 343.166748,288.000000 1.000092,288.000000 
	C1.000061,192.333389 1.000061,96.666771 1.000031,1.000118 
	C468.666534,1.000078 936.333069,1.000078 1403.999756,1.000039 
	C1403.999756,96.666542 1403.999756,192.333084 1403.999878,287.999817 
	C1278.833374,288.000000 1153.666626,288.000000 1028.000000,288.000000 
M320.745605,174.724777 
	C335.177704,174.807938 349.609802,174.905014 364.041992,174.925430 
	C364.643097,174.926285 365.245148,174.211075 365.950439,172.946259 
	C365.950439,170.172775 365.950439,167.399307 365.950439,163.834305 
	C353.680878,163.834305 342.000000,163.834305 329.740967,163.834305 
	C329.740967,142.858795 329.740967,122.677490 329.740967,102.562546 
	C326.221588,102.795677 323.314484,102.988243 320.223419,103.192993 
	C320.223419,126.921158 320.223419,150.509003 320.745605,174.724777 
M807.636169,102.321793 
	C792.838074,102.261246 778.039917,102.200699 762.430664,102.448196 
	C762.288330,103.593117 762.023193,104.737892 762.021912,105.882973 
	C761.997864,127.512344 761.997070,149.141769 762.026123,170.771133 
	C762.027832,172.039856 762.323730,173.308167 762.484863,174.593185 
	C766.058960,174.593185 769.281067,174.593185 773.129761,174.593185 
	C773.129761,164.645584 773.129761,155.088333 773.129761,144.916931 
	C782.977966,144.916931 792.203918,144.916931 801.653809,144.916931 
	C801.653809,141.058472 801.653809,137.837662 801.653809,133.984741 
	C792.101379,133.984741 782.875305,133.984741 773.485291,133.984741 
	C773.485291,126.674553 773.485291,120.006714 773.485291,112.730209 
	C785.192444,112.730209 796.421997,112.730209 807.886292,112.730209 
	C807.886292,109.133133 807.886292,106.153557 807.636169,102.321793 
M34.106224,175.262436 
	C42.036716,202.604965 57.330521,225.109512 80.423027,241.546356 
	C109.210571,262.036835 141.478714,268.743744 176.297028,262.045380 
	C214.119827,254.769058 241.946106,233.384293 260.248230,200.063507 
	C274.494629,174.126526 278.531586,146.202469 272.127869,116.974785 
	C263.234161,76.382210 239.771744,47.536644 202.260361,30.111958 
	C178.725372,19.179541 154.049225,17.019545 128.687973,21.945272 
	C89.799759,29.498243 61.576942,51.456322 43.073578,86.101860 
	C36.299431,98.785713 32.397469,112.449852 30.807957,126.864937 
	C29.031355,142.976746 29.839308,158.787613 34.106224,175.262436 
M717.264404,123.033913 
	C714.145630,123.741150 709.795959,120.737152 708.356567,126.193161 
	C707.444580,125.727936 706.645081,125.454262 706.002258,124.971832 
	C697.595764,118.662842 681.363892,121.511169 679.870850,135.715973 
	C678.929199,144.674316 679.174500,153.915436 680.211731,162.876404 
	C681.128418,170.796249 687.301453,175.249908 695.389160,174.861374 
	C699.896118,174.644867 704.336731,173.046982 708.898743,172.051666 
	C709.680359,176.076050 708.821106,180.933197 704.526367,183.515839 
	C698.035339,187.419128 691.889465,185.318390 687.482910,180.331146 
	C684.799683,182.787750 682.503113,184.890320 680.219543,186.980988 
	C686.944763,195.581909 693.159424,196.433945 704.561279,194.116318 
	C714.354431,192.125687 719.829773,185.412888 719.941772,175.650345 
	C720.127319,159.486252 720.035828,143.318130 719.913635,127.152832 
	C719.903381,125.800667 718.777771,124.456924 717.264404,123.033913 
M436.048401,188.454361 
	C437.698029,183.203003 440.539154,178.003479 440.770264,172.690445 
	C441.420532,157.739517 441.007507,142.741852 440.979584,127.762672 
	C440.976929,126.325157 440.735626,124.888092 440.555573,122.905014 
	C436.345917,124.134445 430.887085,119.744431 429.226990,127.453903 
	C423.060394,121.157631 415.980560,120.167534 408.643585,123.889244 
	C401.373810,127.576859 399.833618,134.490570 399.979126,142.029907 
	C400.088287,147.686630 399.937439,153.348068 400.018219,159.005737 
	C400.150543,168.270996 406.897339,175.265411 416.025116,174.865143 
	C420.576263,174.665558 425.065948,173.063965 429.870148,172.035156 
	C430.645325,175.917084 429.545502,180.244019 425.393555,183.077728 
	C418.791412,187.583725 412.943817,185.238922 408.017273,179.783890 
	C406.737366,180.934738 405.887543,181.719421 405.015991,182.479156 
	C400.259613,186.625168 400.616974,188.544250 405.968689,192.060623 
	C413.914948,197.281723 429.523621,195.602753 436.048401,188.454361 
M939.890442,138.731079 
	C938.521790,135.011856 937.071106,131.320145 935.810974,127.564514 
	C934.848999,124.697281 933.765686,122.730850 930.000183,122.860153 
	C926.537292,122.979065 925.621887,124.605179 924.700256,127.425537 
	C921.984436,135.736465 918.968994,143.949966 916.026489,152.185776 
	C915.635925,153.278702 914.988770,154.279907 913.910339,156.410553 
	C910.898987,144.533310 908.208923,133.923401 905.534119,123.373695 
	C901.601868,123.373695 898.051392,123.373695 894.124390,123.373695 
	C898.700989,138.290970 903.050842,152.788269 907.615051,167.217743 
	C910.053833,174.927872 910.363892,174.955566 918.585388,173.416443 
	C922.297668,163.116745 926.009888,152.817062 930.097168,141.476883 
	C931.098450,143.668716 931.643005,144.653946 932.011780,145.701065 
	C934.861328,153.791779 937.927246,161.819382 940.388062,170.027832 
	C941.478516,173.665009 943.543457,173.953171 946.634888,174.091827 
	C949.719971,174.230194 951.050232,172.963409 951.886108,170.233429 
	C955.462280,158.553848 959.189453,146.920563 962.779053,135.245026 
	C963.959412,131.405640 964.890686,127.489632 966.017456,123.305695 
	C964.037292,123.175407 962.696655,123.227531 961.414551,122.978462 
	C955.960938,121.919067 953.927002,124.516624 952.911133,129.636642 
	C951.209900,138.210953 948.787537,146.642197 946.668640,155.133652 
	C946.242065,155.162720 945.815491,155.191803 945.388916,155.220871 
	C943.597046,149.984741 941.805176,144.748627 939.890442,138.731079 
M1049.927124,164.205154 
	C1055.005981,153.451614 1052.151245,138.332275 1038.074707,135.476791 
	C1032.118286,134.268509 1026.264038,132.539261 1020.390015,130.948227 
	C1016.460083,129.883728 1014.211975,127.361717 1013.993835,123.139519 
	C1013.781921,119.036766 1015.455139,116.284813 1019.139526,114.353134 
	C1025.023560,111.268143 1030.857666,111.373985 1036.768066,113.961960 
	C1039.452637,115.137428 1042.457642,118.047340 1044.553711,117.457344 
	C1047.009155,116.766121 1048.641968,113.127869 1050.601685,110.743324 
	C1050.779785,110.526550 1050.739868,110.130463 1050.799316,109.827209 
	C1043.927979,103.547348 1034.085327,100.868553 1022.171997,102.027061 
	C1011.871704,103.028709 1003.738770,110.478714 1003.020752,119.570190 
	C1001.925171,133.441254 1005.818909,138.933777 1018.762390,142.115265 
	C1024.805420,143.600616 1031.057373,144.714615 1036.716919,147.152267 
	C1042.902832,149.816559 1042.653442,158.634903 1036.764404,162.020676 
	C1029.038330,166.462723 1021.246094,165.520813 1013.488220,162.128265 
	C1010.810547,160.957291 1007.931580,158.202637 1005.674683,158.679626 
	C1003.345276,159.171906 1001.652710,162.709091 999.708435,164.937531 
	C999.538574,165.132248 999.568359,165.501068 999.486511,165.875641 
	C1000.032898,166.458084 1000.555786,167.113342 1001.179199,167.652420 
	C1001.797485,168.186981 1002.506775,168.620010 1003.193604,169.071045 
	C1012.743164,175.342224 1023.296448,176.099121 1034.157837,174.349289 
	C1040.475708,173.331436 1046.279663,171.043213 1049.927124,164.205154 
M455.000610,116.512115 
	C455.000610,135.567917 455.000610,154.623734 455.000610,173.514923 
	C459.215851,173.514923 462.437225,173.514923 466.005249,173.514923 
	C466.005249,162.555832 465.946777,152.075943 466.028717,141.597153 
	C466.072906,135.944016 469.003510,133.144058 474.664246,133.003662 
	C482.157288,132.817810 485.701477,136.255188 485.963989,144.225784 
	C486.117401,148.884232 485.998352,153.551697 485.999664,158.215103 
	C486.001099,163.312271 486.000000,168.409439 486.000000,173.612930 
	C490.021454,173.612930 493.245026,173.612930 497.000671,173.612930 
	C497.000671,169.940674 497.089478,166.643692 496.983582,163.352982 
	C496.695709,154.408600 496.533508,145.452591 495.921173,136.528671 
	C495.441406,129.536346 490.601562,124.839951 483.773163,122.750252 
	C477.012939,120.681412 471.656799,123.138710 465.858368,127.797989 
	C465.858368,119.070335 465.858368,111.329559 465.858368,103.340622 
	C462.076416,103.340622 458.853241,103.340622 455.000610,103.340622 
	C455.000610,107.613831 455.000610,111.565735 455.000610,116.512115 
M1312.397705,152.999329 
	C1314.818481,152.893448 1317.239258,152.787582 1319.622314,152.683365 
	C1320.688965,144.990814 1319.720825,138.202469 1316.375854,131.858429 
	C1309.824219,119.432144 1290.288330,118.604202 1282.229614,130.102371 
	C1277.319336,137.108200 1278.214478,144.853683 1277.969482,152.590302 
	C1277.436401,169.419846 1289.717773,178.059158 1306.006470,174.323502 
	C1310.700195,173.247055 1314.974976,170.344238 1319.334229,168.328522 
	C1316.229492,164.917206 1314.058594,162.531906 1311.909790,160.170929 
	C1299.584717,168.069931 1290.571045,165.477798 1288.483398,152.999374 
	C1296.184814,152.999374 1303.804810,152.999374 1312.397705,152.999329 
M872.660461,174.703079 
	C883.136108,170.935745 886.992432,165.450317 886.999146,154.302628 
	C887.001465,150.477585 887.005066,146.652512 886.998047,142.827484 
	C886.977722,131.828506 881.518250,124.629860 870.689575,122.421715 
	C859.108337,120.060104 843.869995,126.218964 844.949402,142.385635 
	C845.281006,147.352783 844.771179,152.374359 845.065369,157.346222 
	C845.408936,163.152954 847.603699,167.892365 852.702026,171.538696 
	C858.733276,175.852280 865.268921,174.876053 872.660461,174.703079 
M1135.848633,132.101410 
	C1142.035278,135.057861 1143.505249,137.681503 1142.141113,144.000641 
	C1136.782471,144.000641 1131.311035,144.089676 1125.843750,143.977036 
	C1119.670410,143.849869 1115.424561,146.570435 1112.930176,152.167297 
	C1110.726807,157.111099 1111.813354,166.072235 1115.067749,169.554840 
	C1121.506592,176.444992 1129.545410,175.523483 1137.671509,174.183472 
	C1139.497559,173.882355 1141.331909,173.346497 1143.154907,173.376678 
	C1146.200562,173.427124 1149.240234,173.846649 1152.714722,174.148346 
	C1152.832520,171.629532 1152.983032,169.844757 1152.988037,168.059601 
	C1153.012939,159.065155 1152.692749,150.057343 1153.081421,141.079636 
	C1153.517090,131.013885 1147.488037,125.267761 1140.997314,123.179176 
	C1130.948364,119.945595 1119.256714,123.027992 1114.488281,129.844528 
	C1117.984863,133.876419 1121.615112,136.424164 1127.298340,133.205933 
	C1129.416260,132.006668 1132.423462,132.378036 1135.848633,132.101410 
M655.000854,154.505188 
	C655.000854,160.785309 655.000854,167.065445 655.000854,173.506668 
	C658.993286,173.506668 662.330200,173.506668 665.965698,173.506668 
	C665.965698,161.370255 666.405884,149.700882 665.831909,138.081604 
	C665.336792,128.056870 656.947693,120.934280 647.517090,122.174423 
	C643.319885,122.726364 639.342407,124.948776 635.302063,126.399750 
	C634.293884,122.473419 632.162659,121.850288 624.356567,123.821953 
	C624.356567,140.333801 624.356567,156.886719 624.356567,173.643433 
	C627.952881,173.643433 631.177612,173.643433 634.999268,173.643433 
	C634.999268,168.516266 634.883728,163.724518 635.027893,158.940567 
	C635.216797,152.668884 635.166138,146.340210 636.044861,140.153427 
	C636.877563,134.290405 640.595276,132.354752 647.461670,133.019104 
	C651.534851,133.413223 654.802917,137.219421 654.965576,142.016998 
	C655.095276,145.843628 654.997620,149.677963 655.000854,154.505188 
M574.000854,159.493530 
	C574.000854,164.232544 574.000854,168.971573 574.000854,173.514008 
	C578.219971,173.514008 581.439819,173.514008 584.967590,173.514008 
	C584.967590,161.392792 585.293457,149.740173 584.855774,138.116302 
	C584.551697,130.042358 579.618713,124.666122 571.967896,122.497581 
	C565.259033,120.596024 559.826294,123.818871 554.463989,127.282356 
	C553.301086,122.460236 551.024719,121.800201 543.364746,123.848183 
	C543.364746,140.363220 543.364746,156.910370 543.364746,173.636536 
	C546.967957,173.636536 550.192505,173.636536 553.999268,173.636536 
	C553.999268,167.999649 553.898560,162.712097 554.026794,157.430084 
	C554.163025,151.817795 554.009033,146.127991 554.907654,140.623138 
	C555.953735,134.213959 559.398682,132.333405 566.465149,133.019547 
	C570.912109,133.451340 573.925354,137.395248 573.986511,143.013077 
	C574.042664,148.173416 574.000000,153.334824 574.000854,159.493530 
M1223.938232,173.652084 
	C1227.167480,173.652084 1230.396729,173.652084 1233.704102,173.652084 
	C1233.828735,171.922501 1233.980591,170.771729 1233.983765,169.620529 
	C1234.008179,160.790695 1233.875122,151.958206 1234.049316,143.131668 
	C1234.188110,136.110809 1237.945190,132.838013 1245.123779,133.002548 
	C1250.612183,133.128342 1253.933472,136.961868 1253.990967,143.312668 
	C1254.030029,147.643967 1253.999634,151.975922 1253.999878,156.307571 
	C1254.000122,162.066086 1254.000000,167.824585 1254.000000,173.575073 
	C1258.087891,173.575073 1261.313232,173.575073 1264.957275,173.575073 
	C1264.957275,161.356369 1265.588745,149.509949 1264.725830,137.773422 
	C1264.188477,130.465469 1260.143433,124.448540 1252.041870,122.510231 
	C1245.378418,120.915985 1239.793457,123.105751 1234.598999,127.401802 
	C1234.098022,125.725136 1233.706177,124.414070 1233.384766,123.338226 
	C1229.817993,123.338226 1226.716553,123.338226 1223.312866,123.338226 
	C1223.312866,140.105637 1223.312866,156.540253 1223.938232,173.652084 
M1187.657959,133.003128 
	C1194.853394,133.096176 1197.895386,136.088730 1197.991455,143.217102 
	C1198.029663,146.049423 1197.999634,148.882675 1197.999756,151.715500 
	C1198.000000,158.982529 1197.999756,166.249573 1197.999756,173.608551 
	C1202.024170,173.608551 1205.250000,173.608551 1208.906372,173.608551 
	C1208.906372,161.264481 1209.532471,149.260239 1208.707275,137.356613 
	C1208.052612,127.915428 1200.926270,121.653809 1192.343872,122.195740 
	C1187.643555,122.492546 1183.066162,124.733849 1178.202881,126.166161 
	C1178.098389,125.768158 1177.754883,124.459801 1177.348755,122.912689 
	C1174.105591,123.068848 1171.212158,123.208168 1168.466064,123.340393 
	C1168.466064,140.536057 1168.466064,157.096893 1168.466064,173.532684 
	C1171.833130,173.532684 1174.727417,173.532684 1178.005127,173.532684 
	C1178.005127,163.927399 1177.551758,154.751068 1178.134399,145.641022 
	C1178.700073,136.795837 1179.233398,134.518341 1187.657959,133.003128 
M1103.888916,130.486008 
	C1100.766113,124.802643 1095.132324,123.524780 1089.482300,122.294044 
	C1080.789307,120.400414 1070.121460,123.922356 1066.484741,131.161484 
	C1060.687622,142.700897 1060.944580,154.978683 1066.427979,166.459122 
	C1070.027588,173.995789 1081.712646,177.031448 1091.755127,174.636627 
	C1096.663452,173.466171 1101.221802,171.758865 1103.990723,166.743546 
	C1101.434814,164.331635 1098.921387,161.959854 1096.354736,159.537735 
	C1096.266602,159.584732 1095.942871,159.687180 1095.709106,159.892319 
	C1088.724243,166.021286 1081.425781,166.380798 1076.765381,161.300705 
	C1072.781006,156.957535 1072.846069,137.933029 1077.294678,135.409012 
	C1078.015381,135.000092 1078.730103,134.569641 1079.484741,134.232834 
	C1085.986084,131.331741 1091.625977,133.189499 1096.709717,137.827393 
	C1099.260498,135.453049 1101.540283,133.330978 1103.888916,130.486008 
M512.000183,159.303207 
	C511.609344,172.842316 518.693604,176.725372 530.647217,174.203140 
	C530.647217,171.004959 530.647217,167.770325 530.647217,165.398453 
	C527.724365,163.929001 523.510071,162.889145 523.431824,161.598343 
	C522.862183,152.210556 523.125488,142.772247 523.125488,133.391754 
	C526.124329,133.065964 528.375977,132.821335 530.585022,132.581345 
	C530.585022,129.225037 530.585022,126.325134 530.585022,123.362923 
	C527.937805,123.077309 525.690125,122.834801 522.847656,122.528114 
	C522.847656,117.628410 522.847656,113.055931 522.847656,108.392738 
	C518.969543,108.392738 515.745605,108.392738 512.934265,108.392738 
	C509.734375,113.507545 516.234802,121.429916 507.304260,124.038956 
	C507.304260,126.818344 507.304260,129.597733 507.304260,132.742188 
	C512.052734,132.173294 512.087708,135.096436 512.032837,138.353119 
	C511.920685,145.016357 511.999695,151.682800 512.000183,159.303207 
M826.308594,174.760498 
	C829.390564,174.760498 832.472473,174.760498 835.612549,174.760498 
	C835.612549,170.924911 835.612549,167.689301 835.612549,164.518265 
	C828.002258,163.375763 828.000977,163.375763 828.000366,155.525955 
	C827.999146,140.038361 828.009399,124.550758 827.986633,109.063202 
	C827.983826,107.144646 827.808350,105.226334 827.720886,103.470276 
	C823.820740,103.470276 820.595764,103.470276 817.030701,103.470276 
	C817.030701,123.569847 816.873047,143.205338 817.133240,162.835281 
	C817.205017,168.250488 819.895447,172.619278 826.308594,174.760498 
M1333.000488,163.463745 
	C1333.000488,166.867371 1333.000488,170.270996 1333.000488,173.527832 
	C1337.198608,173.527832 1340.416260,173.527832 1344.004761,173.527832 
	C1344.004761,162.595398 1343.949951,152.128677 1344.026611,141.662918 
	C1344.068359,135.977661 1346.967285,132.908432 1352.583496,133.107025 
	C1355.710083,133.217575 1358.800415,134.351501 1362.222412,135.092468 
	C1363.999268,132.624222 1365.996582,129.849594 1368.181519,126.814629 
	C1364.923340,123.170151 1360.921143,121.433731 1356.576538,122.157341 
	C1352.383667,122.855682 1348.399170,124.805969 1344.208862,126.245567 
	C1344.109863,125.808754 1343.831787,124.580444 1343.551758,123.344025 
	C1340.114990,123.344025 1336.863770,123.344025 1333.000488,123.344025 
	C1333.000488,136.609955 1333.000488,149.541382 1333.000488,163.463745 
M387.000671,150.500000 
	C387.000671,141.445145 387.000671,132.390274 387.000671,123.448814 
	C382.841064,123.448814 379.625031,123.448814 376.377747,123.448814 
	C376.377747,140.751694 376.377747,157.603973 376.377747,174.640747 
	C379.976837,174.640747 383.194641,174.640747 387.000671,174.640747 
	C387.000671,166.697556 387.000671,159.098755 387.000671,150.500000 
M609.991272,126.781265 
	C609.202637,122.590271 606.878967,121.922585 599.001099,123.912849 
	C599.001099,125.560371 599.001038,127.358215 599.001038,129.156067 
	C599.000977,141.975647 598.997009,154.795227 599.002319,167.614807 
	C599.005432,175.160217 599.063049,175.229095 606.411377,174.969940 
	C607.507202,174.931305 608.593384,174.619415 609.997620,174.380600 
	C609.997620,158.656174 609.997620,143.191101 609.991272,126.781265 
M599.003418,107.615761 
	C599.103333,109.215874 599.203308,110.815987 599.310181,112.526672 
	C603.011169,112.526672 606.332153,112.526672 609.997925,112.526672 
	C609.997925,110.418686 610.070129,108.777855 609.980530,107.145912 
	C609.855042,104.860214 610.869690,101.734367 606.723145,102.032326 
	C603.372009,102.273109 598.872559,100.729980 599.003418,107.615761 
M376.002319,106.754860 
	C376.089630,108.676559 376.176941,110.598259 376.269745,112.640640 
	C380.004517,112.640640 383.217499,112.640640 386.676575,112.640640 
	C386.676575,109.400063 386.676575,106.518616 386.676575,103.264000 
	C383.042389,103.092331 379.703400,102.934608 376.176697,102.768021 
	C376.112793,103.927635 376.058899,104.905945 376.002319,106.754860 
z"/>
<path fill="#2863AD" opacity="1.000000" stroke="none" 
	d="
M34.049599,174.850891 
	C29.839308,158.787613 29.031355,142.976746 30.807957,126.864937 
	C32.397469,112.449852 36.299431,98.785713 43.073578,86.101860 
	C61.576942,51.456322 89.799759,29.498243 128.687973,21.945272 
	C154.049225,17.019545 178.725372,19.179541 202.260361,30.111958 
	C239.771744,47.536644 263.234161,76.382210 272.127869,116.974785 
	C278.531586,146.202469 274.494629,174.126526 260.248230,200.063507 
	C241.946106,233.384293 214.119827,254.769058 176.297028,262.045380 
	C141.478714,268.743744 109.210571,262.036835 80.423027,241.546356 
	C57.330521,225.109512 42.036716,202.604965 34.049599,174.850891 
M160.728287,254.251587 
	C163.050491,254.045273 165.391800,253.964539 167.692093,253.614304 
	C229.440033,244.212723 270.761902,190.667435 264.119598,128.697525 
	C257.472778,66.684975 198.104355,20.904099 136.627533,30.384333 
	C73.479935,40.122215 31.886936,96.308052 41.009045,159.550430 
	C49.196190,216.310822 103.558861,259.682587 160.728287,254.251587 
z"/>
<path fill="#1C4B81" opacity="1.000000" stroke="none" 
	d="
M717.717407,123.071594 
	C718.777771,124.456924 719.903381,125.800667 719.913635,127.152832 
	C720.035828,143.318130 720.127319,159.486252 719.941772,175.650345 
	C719.829773,185.412888 714.354431,192.125687 704.561279,194.116318 
	C693.159424,196.433945 686.944763,195.581909 680.219543,186.980988 
	C682.503113,184.890320 684.799683,182.787750 687.482910,180.331146 
	C691.889465,185.318390 698.035339,187.419128 704.526367,183.515839 
	C708.821106,180.933197 709.680359,176.076050 708.898743,172.051666 
	C704.336731,173.046982 699.896118,174.644867 695.389160,174.861374 
	C687.301453,175.249908 681.128418,170.796249 680.211731,162.876404 
	C679.174500,153.915436 678.929199,144.674316 679.870850,135.715973 
	C681.363892,121.511169 697.595764,118.662842 706.002258,124.971832 
	C706.645081,125.454262 707.444580,125.727936 708.356567,126.193161 
	C709.795959,120.737152 714.145630,123.741150 717.717407,123.071594 
M708.912170,139.279434 
	C706.185608,133.373550 702.695862,131.102997 697.942566,132.142258 
	C692.550171,133.321243 690.111206,136.612213 690.014587,143.007065 
	C689.951782,147.168167 689.931091,151.332626 690.022766,155.492676 
	C690.151367,161.329224 693.940186,164.943283 699.827026,164.995651 
	C705.317139,165.044495 708.840576,161.528290 708.968384,155.624649 
	C709.080078,150.466339 708.978821,145.303421 708.912170,139.279434 
z"/>
<path fill="#1C4B81" opacity="1.000000" stroke="none" 
	d="
M435.788544,188.718353 
	C429.523621,195.602753 413.914948,197.281723 405.968689,192.060623 
	C400.616974,188.544250 400.259613,186.625168 405.015991,182.479156 
	C405.887543,181.719421 406.737366,180.934738 408.017273,179.783890 
	C412.943817,185.238922 418.791412,187.583725 425.393555,183.077728 
	C429.545502,180.244019 430.645325,175.917084 429.870148,172.035156 
	C425.065948,173.063965 420.576263,174.665558 416.025116,174.865143 
	C406.897339,175.265411 400.150543,168.270996 400.018219,159.005737 
	C399.937439,153.348068 400.088287,147.686630 399.979126,142.029907 
	C399.833618,134.490570 401.373810,127.576859 408.643585,123.889244 
	C415.980560,120.167534 423.060394,121.157631 429.226990,127.453903 
	C430.887085,119.744431 436.345917,124.134445 440.555573,122.905014 
	C440.735626,124.888092 440.976929,126.325157 440.979584,127.762672 
	C441.007507,142.741852 441.420532,157.739517 440.770264,172.690445 
	C440.539154,178.003479 437.698029,183.203003 435.788544,188.718353 
M410.148254,153.010330 
	C410.428314,154.124405 410.839996,155.223755 410.966461,156.354980 
	C411.626678,162.261566 414.248322,164.905197 419.651978,164.996185 
	C425.509766,165.094818 429.351837,162.192856 429.833191,156.436523 
	C430.275604,151.145325 430.267517,145.758316 429.821228,140.467239 
	C429.370300,135.121277 425.568787,132.028412 420.553589,132.007172 
	C415.518738,131.985855 411.788208,135.081970 411.055206,140.291443 
	C410.504700,144.203949 410.368408,148.174728 410.148254,153.010330 
z"/>
<path fill="#1C4B81" opacity="1.000000" stroke="none" 
	d="
M939.951904,139.121796 
	C941.805176,144.748627 943.597046,149.984741 945.388916,155.220871 
	C945.815491,155.191803 946.242065,155.162720 946.668640,155.133652 
	C948.787537,146.642197 951.209900,138.210953 952.911133,129.636642 
	C953.927002,124.516624 955.960938,121.919067 961.414551,122.978462 
	C962.696655,123.227531 964.037292,123.175407 966.017456,123.305695 
	C964.890686,127.489632 963.959412,131.405640 962.779053,135.245026 
	C959.189453,146.920563 955.462280,158.553848 951.886108,170.233429 
	C951.050232,172.963409 949.719971,174.230194 946.634888,174.091827 
	C943.543457,173.953171 941.478516,173.665009 940.388062,170.027832 
	C937.927246,161.819382 934.861328,153.791779 932.011780,145.701065 
	C931.643005,144.653946 931.098450,143.668716 930.097168,141.476883 
	C926.009888,152.817062 922.297668,163.116745 918.580566,173.416077 
	C910.363892,174.955566 910.053833,174.927872 907.615051,167.217743 
	C903.050842,152.788269 898.700989,138.290970 894.124390,123.373695 
	C898.051392,123.373695 901.601868,123.373695 905.534119,123.373695 
	C908.208923,133.923401 910.898987,144.533310 913.910339,156.410553 
	C914.988770,154.279907 915.635925,153.278702 916.026489,152.185776 
	C918.968994,143.949966 921.984436,135.736465 924.700256,127.425537 
	C925.621887,124.605179 926.537292,122.979065 930.000183,122.860153 
	C933.765686,122.730850 934.848999,124.697281 935.810974,127.564514 
	C937.071106,131.320145 938.521790,135.011856 939.951904,139.121796 
z"/>
<path fill="#1C4B81" opacity="1.000000" stroke="none" 
	d="
M1049.753174,164.549957 
	C1046.279663,171.043213 1040.475708,173.331436 1034.157837,174.349289 
	C1023.296448,176.099121 1012.743164,175.342224 1003.193604,169.071045 
	C1002.506775,168.620010 1001.797485,168.186981 1001.179199,167.652420 
	C1000.555786,167.113342 1000.032898,166.458084 999.486511,165.875641 
	C999.568359,165.501068 999.538574,165.132248 999.708435,164.937531 
	C1001.652710,162.709091 1003.345276,159.171906 1005.674683,158.679626 
	C1007.931580,158.202637 1010.810547,160.957291 1013.488220,162.128265 
	C1021.246094,165.520813 1029.038330,166.462723 1036.764404,162.020676 
	C1042.653442,158.634903 1042.902832,149.816559 1036.716919,147.152267 
	C1031.057373,144.714615 1024.805420,143.600616 1018.762390,142.115265 
	C1005.818909,138.933777 1001.925171,133.441254 1003.020752,119.570190 
	C1003.738770,110.478714 1011.871704,103.028709 1022.171997,102.027061 
	C1034.085327,100.868553 1043.927979,103.547348 1050.799316,109.827209 
	C1050.739868,110.130463 1050.779785,110.526550 1050.601685,110.743324 
	C1048.641968,113.127869 1047.009155,116.766121 1044.553711,117.457344 
	C1042.457642,118.047340 1039.452637,115.137428 1036.768066,113.961960 
	C1030.857666,111.373985 1025.023560,111.268143 1019.139526,114.353134 
	C1015.455139,116.284813 1013.781921,119.036766 1013.993835,123.139519 
	C1014.211975,127.361717 1016.460083,129.883728 1020.390015,130.948227 
	C1026.264038,132.539261 1032.118286,134.268509 1038.074707,135.476791 
	C1052.151245,138.332275 1055.005981,153.451614 1049.753174,164.549957 
z"/>
<path fill="#1C4B81" opacity="1.000000" stroke="none" 
	d="
M455.000610,116.014877 
	C455.000610,111.565735 455.000610,107.613831 455.000610,103.340622 
	C458.853241,103.340622 462.076416,103.340622 465.858368,103.340622 
	C465.858368,111.329559 465.858368,119.070335 465.858368,127.797989 
	C471.656799,123.138710 477.012939,120.681412 483.773163,122.750252 
	C490.601562,124.839951 495.441406,129.536346 495.921173,136.528671 
	C496.533508,145.452591 496.695709,154.408600 496.983582,163.352982 
	C497.089478,166.643692 497.000671,169.940674 497.000671,173.612930 
	C493.245026,173.612930 490.021454,173.612930 486.000000,173.612930 
	C486.000000,168.409439 486.001099,163.312271 485.999664,158.215103 
	C485.998352,153.551697 486.117401,148.884232 485.963989,144.225784 
	C485.701477,136.255188 482.157288,132.817810 474.664246,133.003662 
	C469.003510,133.144058 466.072906,135.944016 466.028717,141.597153 
	C465.946777,152.075943 466.005249,162.555832 466.005249,173.514923 
	C462.437225,173.514923 459.215851,173.514923 455.000610,173.514923 
	C455.000610,154.623734 455.000610,135.567917 455.000610,116.014877 
z"/>
<path fill="#1C4B81" opacity="1.000000" stroke="none" 
	d="
M807.886292,103.173988 
	C807.886292,106.153557 807.886292,109.133133 807.886292,112.730209 
	C796.421997,112.730209 785.192444,112.730209 773.485291,112.730209 
	C773.485291,120.006714 773.485291,126.674553 773.485291,133.984741 
	C782.875305,133.984741 792.101379,133.984741 801.653809,133.984741 
	C801.653809,137.837662 801.653809,141.058472 801.653809,144.916931 
	C792.203918,144.916931 782.977966,144.916931 773.129761,144.916931 
	C773.129761,155.088333 773.129761,164.645584 773.129761,174.593185 
	C769.281067,174.593185 766.058960,174.593185 762.484863,174.593185 
	C762.323730,173.308167 762.027832,172.039856 762.026123,170.771133 
	C761.997070,149.141769 761.997864,127.512344 762.021912,105.882973 
	C762.023193,104.737892 762.288330,103.593117 763.185547,102.468483 
	C766.064636,102.657417 768.187866,102.955856 770.313416,102.973366 
	C782.837402,103.076500 795.361938,103.114227 807.886292,103.173988 
z"/>
<path fill="#1C4B81" opacity="1.000000" stroke="none" 
	d="
M1311.911255,152.999359 
	C1303.804810,152.999374 1296.184814,152.999374 1288.483398,152.999374 
	C1290.571045,165.477798 1299.584717,168.069931 1311.909790,160.170929 
	C1314.058594,162.531906 1316.229492,164.917206 1319.334229,168.328522 
	C1314.974976,170.344238 1310.700195,173.247055 1306.006470,174.323502 
	C1289.717773,178.059158 1277.436401,169.419846 1277.969482,152.590302 
	C1278.214478,144.853683 1277.319336,137.108200 1282.229614,130.102371 
	C1290.288330,118.604202 1309.824219,119.432144 1316.375854,131.858429 
	C1319.720825,138.202469 1320.688965,144.990814 1319.622314,152.683365 
	C1317.239258,152.787582 1314.818481,152.893448 1311.911255,152.999359 
M1290.472168,143.963928 
	C1296.605591,143.963928 1302.739014,143.963928 1309.055908,143.963928 
	C1309.093628,139.040909 1307.804443,135.351517 1303.369629,133.096756 
	C1299.599365,131.179947 1296.183228,131.987747 1293.282593,134.403412 
	C1290.472168,136.743958 1287.552490,139.464783 1290.472168,143.963928 
z"/>
<path fill="#1C4B81" opacity="1.000000" stroke="none" 
	d="
M872.240845,174.804810 
	C865.268921,174.876053 858.733276,175.852280 852.702026,171.538696 
	C847.603699,167.892365 845.408936,163.152954 845.065369,157.346222 
	C844.771179,152.374359 845.281006,147.352783 844.949402,142.385635 
	C843.869995,126.218964 859.108337,120.060104 870.689575,122.421715 
	C881.518250,124.629860 886.977722,131.828506 886.998047,142.827484 
	C887.005066,146.652512 887.001465,150.477585 886.999146,154.302628 
	C886.992432,165.450317 883.136108,170.935745 872.240845,174.804810 
M867.176270,133.010178 
	C859.093323,133.020340 856.033630,136.140427 856.010559,144.410477 
	C856.000854,147.891464 855.907593,151.376099 856.031555,154.852676 
	C856.233398,160.515457 860.658020,164.907257 866.013611,164.930756 
	C871.175171,164.953384 875.816650,160.264267 875.972839,154.715744 
	C876.080139,150.906158 876.026123,147.090942 875.991272,143.278732 
	C875.938232,137.487946 873.982117,135.003738 867.176270,133.010178 
z"/>
<path fill="#1C4B81" opacity="1.000000" stroke="none" 
	d="
M1135.436890,132.067322 
	C1132.423462,132.378036 1129.416260,132.006668 1127.298340,133.205933 
	C1121.615112,136.424164 1117.984863,133.876419 1114.488281,129.844528 
	C1119.256714,123.027992 1130.948364,119.945595 1140.997314,123.179176 
	C1147.488037,125.267761 1153.517090,131.013885 1153.081421,141.079636 
	C1152.692749,150.057343 1153.012939,159.065155 1152.988037,168.059601 
	C1152.983032,169.844757 1152.832520,171.629532 1152.714722,174.148346 
	C1149.240234,173.846649 1146.200562,173.427124 1143.154907,173.376678 
	C1141.331909,173.346497 1139.497559,173.882355 1137.671509,174.183472 
	C1129.545410,175.523483 1121.506592,176.444992 1115.067749,169.554840 
	C1111.813354,166.072235 1110.726807,157.111099 1112.930176,152.167297 
	C1115.424561,146.570435 1119.670410,143.849869 1125.843750,143.977036 
	C1131.311035,144.089676 1136.782471,144.000641 1142.141113,144.000641 
	C1143.505249,137.681503 1142.035278,135.057861 1135.436890,132.067322 
M1122.443115,160.854248 
	C1125.554810,166.036026 1133.484497,167.849487 1139.984375,164.865799 
	C1143.397705,163.298920 1144.093994,159.306274 1142.036499,152.063293 
	C1138.679932,152.063293 1135.170532,151.740173 1131.741821,152.128830 
	C1123.994141,153.007065 1122.811035,154.159225 1122.443115,160.854248 
z"/>
<path fill="#1C4B81" opacity="1.000000" stroke="none" 
	d="
M655.000854,154.007034 
	C654.997620,149.677963 655.095276,145.843628 654.965576,142.016998 
	C654.802917,137.219421 651.534851,133.413223 647.461670,133.019104 
	C640.595276,132.354752 636.877563,134.290405 636.044861,140.153427 
	C635.166138,146.340210 635.216797,152.668884 635.027893,158.940567 
	C634.883728,163.724518 634.999268,168.516266 634.999268,173.643433 
	C631.177612,173.643433 627.952881,173.643433 624.356567,173.643433 
	C624.356567,156.886719 624.356567,140.333801 624.356567,123.821953 
	C632.162659,121.850288 634.293884,122.473419 635.302063,126.399750 
	C639.342407,124.948776 643.319885,122.726364 647.517090,122.174423 
	C656.947693,120.934280 665.336792,128.056870 665.831909,138.081604 
	C666.405884,149.700882 665.965698,161.370255 665.965698,173.506668 
	C662.330200,173.506668 658.993286,173.506668 655.000854,173.506668 
	C655.000854,167.065445 655.000854,160.785309 655.000854,154.007034 
z"/>
<path fill="#1C4B81" opacity="1.000000" stroke="none" 
	d="
M574.000854,158.994644 
	C574.000000,153.334824 574.042664,148.173416 573.986511,143.013077 
	C573.925354,137.395248 570.912109,133.451340 566.465149,133.019547 
	C559.398682,132.333405 555.953735,134.213959 554.907654,140.623138 
	C554.009033,146.127991 554.163025,151.817795 554.026794,157.430084 
	C553.898560,162.712097 553.999268,167.999649 553.999268,173.636536 
	C550.192505,173.636536 546.967957,173.636536 543.364746,173.636536 
	C543.364746,156.910370 543.364746,140.363220 543.364746,123.848183 
	C551.024719,121.800201 553.301086,122.460236 554.463989,127.282356 
	C559.826294,123.818871 565.259033,120.596024 571.967896,122.497581 
	C579.618713,124.666122 584.551697,130.042358 584.855774,138.116302 
	C585.293457,149.740173 584.967590,161.392792 584.967590,173.514008 
	C581.439819,173.514008 578.219971,173.514008 574.000854,173.514008 
	C574.000854,168.971573 574.000854,164.232544 574.000854,158.994644 
z"/>
<path fill="#1C4B81" opacity="1.000000" stroke="none" 
	d="
M1223.625488,173.313477 
	C1223.312866,156.540253 1223.312866,140.105637 1223.312866,123.338226 
	C1226.716553,123.338226 1229.817993,123.338226 1233.384766,123.338226 
	C1233.706177,124.414070 1234.098022,125.725136 1234.598999,127.401802 
	C1239.793457,123.105751 1245.378418,120.915985 1252.041870,122.510231 
	C1260.143433,124.448540 1264.188477,130.465469 1264.725830,137.773422 
	C1265.588745,149.509949 1264.957275,161.356369 1264.957275,173.575073 
	C1261.313232,173.575073 1258.087891,173.575073 1254.000000,173.575073 
	C1254.000000,167.824585 1254.000122,162.066086 1253.999878,156.307571 
	C1253.999634,151.975922 1254.030029,147.643967 1253.990967,143.312668 
	C1253.933472,136.961868 1250.612183,133.128342 1245.123779,133.002548 
	C1237.945190,132.838013 1234.188110,136.110809 1234.049316,143.131668 
	C1233.875122,151.958206 1234.008179,160.790695 1233.983765,169.620529 
	C1233.980591,170.771729 1233.828735,171.922501 1233.704102,173.652084 
	C1230.396729,173.652084 1227.167480,173.652084 1223.625488,173.313477 
z"/>
<path fill="#1C4B81" opacity="1.000000" stroke="none" 
	d="
M1187.238525,133.006943 
	C1179.233398,134.518341 1178.700073,136.795837 1178.134399,145.641022 
	C1177.551758,154.751068 1178.005127,163.927399 1178.005127,173.532684 
	C1174.727417,173.532684 1171.833130,173.532684 1168.466064,173.532684 
	C1168.466064,157.096893 1168.466064,140.536057 1168.466064,123.340393 
	C1171.212158,123.208168 1174.105591,123.068848 1177.348755,122.912689 
	C1177.754883,124.459801 1178.098389,125.768158 1178.202881,126.166161 
	C1183.066162,124.733849 1187.643555,122.492546 1192.343872,122.195740 
	C1200.926270,121.653809 1208.052612,127.915428 1208.707275,137.356613 
	C1209.532471,149.260239 1208.906372,161.264481 1208.906372,173.608551 
	C1205.250000,173.608551 1202.024170,173.608551 1197.999756,173.608551 
	C1197.999756,166.249573 1198.000000,158.982529 1197.999756,151.715500 
	C1197.999634,148.882675 1198.029663,146.049423 1197.991455,143.217102 
	C1197.895386,136.088730 1194.853394,133.096176 1187.238525,133.006943 
z"/>
<path fill="#1C4B81" opacity="1.000000" stroke="none" 
	d="
M1103.854492,130.847443 
	C1101.540283,133.330978 1099.260498,135.453049 1096.709717,137.827393 
	C1091.625977,133.189499 1085.986084,131.331741 1079.484741,134.232834 
	C1078.730103,134.569641 1078.015381,135.000092 1077.294678,135.409012 
	C1072.846069,137.933029 1072.781006,156.957535 1076.765381,161.300705 
	C1081.425781,166.380798 1088.724243,166.021286 1095.709106,159.892319 
	C1095.942871,159.687180 1096.266602,159.584732 1096.354736,159.537735 
	C1098.921387,161.959854 1101.434814,164.331635 1103.990723,166.743546 
	C1101.221802,171.758865 1096.663452,173.466171 1091.755127,174.636627 
	C1081.712646,177.031448 1070.027588,173.995789 1066.427979,166.459122 
	C1060.944580,154.978683 1060.687622,142.700897 1066.484741,131.161484 
	C1070.121460,123.922356 1080.789307,120.400414 1089.482300,122.294044 
	C1095.132324,123.524780 1100.766113,124.802643 1103.854492,130.847443 
z"/>
<path fill="#1C4B81" opacity="1.000000" stroke="none" 
	d="
M320.223419,174.096863 
	C320.223419,150.509003 320.223419,126.921158 320.223419,103.192993 
	C323.314484,102.988243 326.221588,102.795677 329.740967,102.562546 
	C329.740967,122.677490 329.740967,142.858795 329.740967,163.834305 
	C342.000000,163.834305 353.680878,163.834305 365.950439,163.834305 
	C365.950439,167.399307 365.950439,170.172775 365.441956,173.423141 
	C350.030090,173.965637 335.126770,174.031250 320.223419,174.096863 
z"/>
<path fill="#1C4B81" opacity="1.000000" stroke="none" 
	d="
M512.000122,158.825562 
	C511.999695,151.682800 511.920685,145.016357 512.032837,138.353119 
	C512.087708,135.096436 512.052734,132.173294 507.304260,132.742188 
	C507.304260,129.597733 507.304260,126.818344 507.305054,124.041473 
	C516.234802,121.429916 509.734375,113.507545 512.934265,108.392738 
	C515.745605,108.392738 518.969543,108.392738 522.847656,108.392738 
	C522.847656,113.055931 522.847656,117.628410 522.847656,122.528114 
	C525.690125,122.834801 527.937805,123.077309 530.585022,123.362923 
	C530.585022,126.325134 530.585022,129.225037 530.585022,132.581345 
	C528.375977,132.821335 526.124329,133.065964 523.125488,133.391754 
	C523.125488,142.772247 522.862183,152.210556 523.431824,161.598343 
	C523.510071,162.889145 527.724365,163.929001 530.647217,165.398453 
	C530.647217,167.770325 530.647217,171.004959 530.647217,174.203140 
	C518.693604,176.725372 511.609344,172.842316 512.000122,158.825562 
z"/>
<path fill="#1C4B81" opacity="1.000000" stroke="none" 
	d="
M825.964966,174.525421 
	C819.895447,172.619278 817.205017,168.250488 817.133240,162.835281 
	C816.873047,143.205338 817.030701,123.569847 817.030701,103.470276 
	C820.595764,103.470276 823.820740,103.470276 827.720886,103.470276 
	C827.808350,105.226334 827.983826,107.144646 827.986633,109.063202 
	C828.009399,124.550758 827.999146,140.038361 828.000366,155.525955 
	C828.000977,163.375763 828.002258,163.375763 835.612549,164.518265 
	C835.612549,167.689301 835.612549,170.924911 835.612549,174.760498 
	C832.472473,174.760498 829.390564,174.760498 825.964966,174.525421 
z"/>
<path fill="#1C4B81" opacity="1.000000" stroke="none" 
	d="
M1333.000488,162.968277 
	C1333.000488,149.541382 1333.000488,136.609955 1333.000488,123.344025 
	C1336.863770,123.344025 1340.114990,123.344025 1343.551758,123.344025 
	C1343.831787,124.580444 1344.109863,125.808754 1344.208862,126.245567 
	C1348.399170,124.805969 1352.383667,122.855682 1356.576538,122.157341 
	C1360.921143,121.433731 1364.923340,123.170151 1368.181519,126.814629 
	C1365.996582,129.849594 1363.999268,132.624222 1362.222412,135.092468 
	C1358.800415,134.351501 1355.710083,133.217575 1352.583496,133.107025 
	C1346.967285,132.908432 1344.068359,135.977661 1344.026611,141.662918 
	C1343.949951,152.128677 1344.004761,162.595398 1344.004761,173.527832 
	C1340.416260,173.527832 1337.198608,173.527832 1333.000488,173.527832 
	C1333.000488,170.270996 1333.000488,166.867371 1333.000488,162.968277 
z"/>
<path fill="#1C4B81" opacity="1.000000" stroke="none" 
	d="
M387.000671,150.999985 
	C387.000671,159.098755 387.000671,166.697556 387.000671,174.640747 
	C383.194641,174.640747 379.976837,174.640747 376.377747,174.640747 
	C376.377747,157.603973 376.377747,140.751694 376.377747,123.448814 
	C379.625031,123.448814 382.841064,123.448814 387.000671,123.448814 
	C387.000671,132.390274 387.000671,141.445145 387.000671,150.999985 
z"/>
<path fill="#1C4B81" opacity="1.000000" stroke="none" 
	d="
M609.994446,127.253647 
	C609.997620,143.191101 609.997620,158.656174 609.997620,174.380600 
	C608.593384,174.619415 607.507202,174.931305 606.411377,174.969940 
	C599.063049,175.229095 599.005432,175.160217 599.002319,167.614807 
	C598.997009,154.795227 599.000977,141.975647 599.001038,129.156067 
	C599.001038,127.358215 599.001099,125.560371 599.001099,123.912849 
	C606.878967,121.922585 609.202637,122.590271 609.994446,127.253647 
z"/>
<path fill="#1C4B81" opacity="1.000000" stroke="none" 
	d="
M599.005371,107.173798 
	C598.872559,100.729980 603.372009,102.273109 606.723145,102.032326 
	C610.869690,101.734367 609.855042,104.860214 609.980530,107.145912 
	C610.070129,108.777855 609.997925,110.418686 609.997925,112.526672 
	C606.332153,112.526672 603.011169,112.526672 599.310181,112.526672 
	C599.203308,110.815987 599.103333,109.215874 599.005371,107.173798 
z"/>
<path fill="#1C4B81" opacity="1.000000" stroke="none" 
	d="
M376.003662,106.319565 
	C376.058899,104.905945 376.112793,103.927635 376.176697,102.768021 
	C379.703400,102.934608 383.042389,103.092331 386.676575,103.264000 
	C386.676575,106.518616 386.676575,109.400063 386.676575,112.640640 
	C383.217499,112.640640 380.004517,112.640640 376.269745,112.640640 
	C376.176941,110.598259 376.089630,108.676559 376.003662,106.319565 
z"/>
<path fill="#0053AC" opacity="1.000000" stroke="none" 
	d="
M320.484497,174.410828 
	C335.126770,174.031250 350.030090,173.965637 365.390106,173.864746 
	C365.245148,174.211075 364.643097,174.926285 364.041992,174.925430 
	C349.609802,174.905014 335.177704,174.807938 320.484497,174.410828 
z"/>
<path fill="#32329B" opacity="1.000000" stroke="none" 
	d="
M807.761230,102.747894 
	C795.361938,103.114227 782.837402,103.076500 770.313416,102.973366 
	C768.187866,102.955856 766.064636,102.657417 763.591064,102.314453 
	C778.039917,102.200699 792.838074,102.261246 807.761230,102.747894 
z"/>
<path fill="#172741" opacity="1.000000" stroke="none" 
	d="
M160.273285,254.295364 
	C103.558861,259.682587 49.196190,216.310822 41.009045,159.550430 
	C31.886936,96.308052 73.479935,40.122215 136.627533,30.384333 
	C198.104355,20.904099 257.472778,66.684975 264.119598,128.697525 
	C270.761902,190.667435 229.440033,244.212723 167.692093,253.614304 
	C165.391800,253.964539 163.050491,254.045273 160.273285,254.295364 
M92.876450,155.396164 
	C92.786003,156.224487 92.688881,157.052155 92.606102,157.881256 
	C91.475365,169.206070 95.815979,173.992035 107.257652,173.994431 
	C137.921997,174.000839 168.586395,174.025238 199.250671,173.975754 
	C207.773727,173.961990 212.125214,169.441238 212.105118,160.956238 
	C212.045441,135.752670 194.008118,112.303658 169.106445,105.047112 
	C164.513245,103.708611 157.939163,103.693054 155.865967,100.635208 
	C153.532043,97.192825 155.423187,90.989174 155.164108,86.002869 
	C154.969696,82.261147 155.677597,79.695053 159.249969,77.361061 
	C164.492508,73.935883 164.744110,66.068741 160.568680,61.441441 
	C156.503387,56.936199 149.317383,56.581841 144.827774,60.665215 
	C140.104996,64.960655 139.390015,72.943077 144.533600,76.521210 
	C149.299118,79.836357 149.404251,83.752907 149.228134,88.423477 
	C149.108902,91.585434 149.024460,94.768463 149.252106,97.918396 
	C149.500397,101.353798 148.562088,102.727242 144.734604,103.199837 
	C117.791275,106.526688 96.830551,127.482605 92.876450,155.396164 
M134.855316,193.633514 
	C136.900620,192.049301 138.945938,190.465088 140.456131,189.295349 
	C143.524460,190.994583 146.227798,193.701141 148.825500,193.603256 
	C151.639679,193.497208 154.355331,190.776749 157.153519,189.173813 
	C164.313599,195.730667 164.313599,195.730667 172.494308,188.994629 
	C180.864639,195.503326 179.621445,196.167770 188.425522,189.005142 
	C196.049759,195.123108 196.049759,195.123108 204.357483,189.025238 
	C206.585052,190.766357 208.830002,192.521042 211.348206,194.489319 
	C213.334625,189.167679 210.570068,186.465317 207.482498,184.559677 
	C202.506882,181.488724 199.607483,185.650681 196.632553,188.663101 
	C186.613586,179.950302 186.403229,183.604370 180.534698,188.536011 
	C172.301025,181.279282 171.993713,182.161697 164.583344,188.528870 
	C158.510590,183.405685 158.376678,180.149048 148.638885,188.504074 
	C141.640915,182.314102 141.640915,182.314102 133.264984,188.048111 
	C130.302383,186.457092 127.588905,183.818314 124.982437,183.920090 
	C122.167664,184.029968 119.452927,186.701767 116.645790,188.283508 
	C109.810440,181.808350 109.377861,181.811005 101.420822,188.414062 
	C99.043327,186.722137 96.687279,185.045486 93.808327,182.996719 
	C93.363823,187.887695 94.945267,191.121490 97.927803,192.917877 
	C103.287811,196.146255 105.948967,191.341370 108.542320,189.183395 
	C111.841896,191.001022 114.556702,193.706985 117.159065,193.602844 
	C119.980713,193.489929 122.697609,190.759293 124.448730,189.752029 
	C128.049850,191.273575 131.086014,192.556412 134.855316,193.633514 
M195.080978,85.039558 
	C193.432205,84.450272 191.783417,83.860985 189.641846,83.095558 
	C194.302139,79.170937 198.777039,75.402466 204.098312,70.921204 
	C199.436813,70.273804 195.867477,69.778084 191.657547,69.193398 
	C193.846924,66.519821 195.389328,64.636292 196.931747,62.752766 
	C196.567841,62.396526 196.203918,62.040283 195.840012,61.684044 
	C191.432266,64.904274 187.024506,68.124512 181.740799,71.984711 
	C185.623154,72.959137 188.343857,73.642006 191.704956,74.485603 
	C186.163574,79.101303 181.245728,83.197624 175.253769,88.188644 
	C179.572830,88.188644 182.569916,88.188644 186.537491,88.188644 
	C183.771744,91.848587 181.624695,94.689789 179.477646,97.530998 
	C179.784958,97.813774 180.092255,98.096558 180.399567,98.379341 
	C185.187775,94.123558 189.975983,89.867775 195.080978,85.039558 
M111.189148,63.399239 
	C109.769424,62.556870 108.349709,61.714497 106.929985,60.872124 
	C106.754951,61.142799 106.579910,61.413471 106.404877,61.684143 
	C108.406837,63.964558 110.408806,66.244972 113.008698,69.206482 
	C108.497849,69.840439 105.032349,70.327492 100.510918,70.962944 
	C105.846359,75.464981 110.285591,79.210800 115.329544,83.466881 
	C112.632576,83.853348 111.078560,84.076027 108.382904,84.462303 
	C114.067467,89.445358 118.995316,93.765083 123.923164,98.084801 
	C124.211670,97.784363 124.500168,97.483917 124.788666,97.183472 
	C122.700005,94.373367 120.611343,91.563271 117.876099,87.883247 
	C122.003120,87.883247 124.978439,87.883247 128.955124,87.883247 
	C123.184738,83.050385 118.282387,78.944511 112.889542,74.427849 
	C116.309784,73.583138 118.952934,72.930351 122.802780,71.979546 
	C118.545303,68.831955 115.151176,66.322639 111.189148,63.399239 
M212.451385,140.206329 
	C214.164047,146.544449 215.876709,152.882553 217.647964,159.437500 
	C222.359665,159.070679 225.601868,156.530167 226.881409,151.975296 
	C228.086975,147.683777 227.204254,143.564041 223.417313,140.829300 
	C220.076416,138.416687 216.353561,136.766022 212.451385,140.206329 
M77.785126,147.833725 
	C78.029716,155.439590 81.027428,158.810944 87.669411,159.057724 
	C89.292114,152.228302 90.908974,145.423477 92.529480,138.603333 
	C83.943810,137.709869 80.148293,139.943344 77.785126,147.833725 
z"/>
<path fill="#000000" opacity="1.000000" stroke="none" 
	d="
M708.941895,139.710999 
	C708.978821,145.303421 709.080078,150.466339 708.968384,155.624649 
	C708.840576,161.528290 705.317139,165.044495 699.827026,164.995651 
	C693.940186,164.943283 690.151367,161.329224 690.022766,155.492676 
	C689.931091,151.332626 689.951782,147.168167 690.014587,143.007065 
	C690.111206,136.612213 692.550171,133.321243 697.942566,132.142258 
	C702.695862,131.102997 706.185608,133.373550 708.941895,139.710999 
z"/>
<path fill="#000000" opacity="1.000000" stroke="none" 
	d="
M410.097961,152.564941 
	C410.368408,148.174728 410.504700,144.203949 411.055206,140.291443 
	C411.788208,135.081970 415.518738,131.985855 420.553589,132.007172 
	C425.568787,132.028412 429.370300,135.121277 429.821228,140.467239 
	C430.267517,145.758316 430.275604,151.145325 429.833191,156.436523 
	C429.351837,162.192856 425.509766,165.094818 419.651978,164.996185 
	C414.248322,164.905197 411.626678,162.261566 410.966461,156.354980 
	C410.839996,155.223755 410.428314,154.124405 410.097961,152.564941 
z"/>
<path fill="#000000" opacity="1.000000" stroke="none" 
	d="
M1290.082031,143.917923 
	C1287.552490,139.464783 1290.472168,136.743958 1293.282593,134.403412 
	C1296.183228,131.987747 1299.599365,131.179947 1303.369629,133.096756 
	C1307.804443,135.351517 1309.093628,139.040909 1309.055908,143.963928 
	C1302.739014,143.963928 1296.605591,143.963928 1290.082031,143.917923 
z"/>
<path fill="#000000" opacity="1.000000" stroke="none" 
	d="
M867.593445,133.020935 
	C873.982117,135.003738 875.938232,137.487946 875.991272,143.278732 
	C876.026123,147.090942 876.080139,150.906158 875.972839,154.715744 
	C875.816650,160.264267 871.175171,164.953384 866.013611,164.930756 
	C860.658020,164.907257 856.233398,160.515457 856.031555,154.852676 
	C855.907593,151.376099 856.000854,147.891464 856.010559,144.410477 
	C856.033630,136.140427 859.093323,133.020340 867.593445,133.020935 
z"/>
<path fill="#000000" opacity="1.000000" stroke="none" 
	d="
M1122.295532,160.492279 
	C1122.811035,154.159225 1123.994141,153.007065 1131.741821,152.128830 
	C1135.170532,151.740173 1138.679932,152.063293 1142.036499,152.063293 
	C1144.093994,159.306274 1143.397705,163.298920 1139.984375,164.865799 
	C1133.484497,167.849487 1125.554810,166.036026 1122.295532,160.492279 
z"/>
<path fill="#748FC8" opacity="1.000000" stroke="none" 
	d="
M92.915588,154.965179 
	C96.830551,127.482605 117.791275,106.526688 144.734604,103.199837 
	C148.562088,102.727242 149.500397,101.353798 149.252106,97.918396 
	C149.024460,94.768463 149.108902,91.585434 149.228134,88.423477 
	C149.404251,83.752907 149.299118,79.836357 144.533600,76.521210 
	C139.390015,72.943077 140.104996,64.960655 144.827774,60.665215 
	C149.317383,56.581841 156.503387,56.936199 160.568680,61.441441 
	C164.744110,66.068741 164.492508,73.935883 159.249969,77.361061 
	C155.677597,79.695053 154.969696,82.261147 155.164108,86.002869 
	C155.423187,90.989174 153.532043,97.192825 155.865967,100.635208 
	C157.939163,103.693054 164.513245,103.708611 169.106445,105.047112 
	C194.008118,112.303658 212.045441,135.752670 212.105118,160.956238 
	C212.125214,169.441238 207.773727,173.961990 199.250671,173.975754 
	C168.586395,174.025238 137.921997,174.000839 107.257652,173.994431 
	C95.815979,173.992035 91.475365,169.206070 92.606102,157.881256 
	C92.688881,157.052155 92.786003,156.224487 92.915588,154.965179 
M182.001328,126.810944 
	C178.293900,120.669960 172.930511,118.601227 167.433777,121.192055 
	C162.190247,123.663536 159.807480,129.745544 161.995193,135.073883 
	C164.136429,140.288956 169.820999,143.028687 175.082367,141.381348 
	C181.041611,139.515518 183.701630,134.383713 182.001328,126.810944 
M128.697876,120.913124 
	C122.208244,124.589882 120.072830,130.006927 122.854073,135.737473 
	C125.294823,140.766464 131.099792,143.099808 136.292084,141.138962 
	C141.570557,139.145554 144.342499,133.829849 143.008316,128.259323 
	C141.613464,122.435577 136.290268,119.459305 128.697876,120.913124 
M143.534790,155.242645 
	C143.534790,158.650116 143.534790,162.057587 143.534790,165.524872 
	C149.714920,165.524872 155.111557,165.524872 160.742737,165.524872 
	C160.742737,161.478714 160.742737,157.780060 160.742737,153.158310 
	C154.845001,153.605774 149.334213,154.023880 143.534790,155.242645 
M170.698883,153.515335 
	C164.107742,153.583694 164.106873,153.583694 164.125381,159.970764 
	C164.128281,160.970566 163.826767,162.128967 164.229263,162.931610 
	C164.783813,164.037491 165.831635,165.647568 166.742447,165.697922 
	C171.661469,165.969894 176.603439,165.826767 181.964218,165.826767 
	C181.964218,163.077667 181.964218,161.104706 181.964218,159.131744 
	C181.964218,157.493820 181.964218,155.855896 181.964218,153.515457 
	C178.201172,153.515457 174.910263,153.515457 170.698883,153.515335 
M139.038849,165.601227 
	C139.201263,161.821671 139.363678,158.042130 139.526077,154.262573 
	C134.270020,154.176910 129.013947,154.091232 123.757889,154.005554 
	C123.373184,157.779205 122.988472,161.552841 122.557404,165.781281 
	C128.522232,165.781281 133.320618,165.781281 139.038849,165.601227 
z"/>
<path fill="#E21D25" opacity="1.000000" stroke="none" 
	d="
M134.488739,193.736389 
	C131.086014,192.556412 128.049850,191.273575 124.448730,189.752029 
	C122.697609,190.759293 119.980713,193.489929 117.159065,193.602844 
	C114.556702,193.706985 111.841896,191.001022 108.542320,189.183395 
	C105.948967,191.341370 103.287811,196.146255 97.927803,192.917877 
	C94.945267,191.121490 93.363823,187.887695 93.808327,182.996719 
	C96.687279,185.045486 99.043327,186.722137 101.420822,188.414062 
	C109.377861,181.811005 109.810440,181.808350 116.645790,188.283508 
	C119.452927,186.701767 122.167664,184.029968 124.982437,183.920090 
	C127.588905,183.818314 130.302383,186.457092 133.264984,188.048111 
	C141.640915,182.314102 141.640915,182.314102 148.638885,188.504074 
	C158.376678,180.149048 158.510590,183.405685 164.583344,188.528870 
	C171.993713,182.161697 172.301025,181.279282 180.534698,188.536011 
	C186.403229,183.604370 186.613586,179.950302 196.632553,188.663101 
	C199.607483,185.650681 202.506882,181.488724 207.482498,184.559677 
	C210.570068,186.465317 213.334625,189.167679 211.348206,194.489319 
	C208.830002,192.521042 206.585052,190.766357 204.357483,189.025238 
	C196.049759,195.123108 196.049759,195.123108 188.425522,189.005142 
	C179.621445,196.167770 180.864639,195.503326 172.494308,188.994629 
	C164.313599,195.730667 164.313599,195.730667 157.153519,189.173813 
	C154.355331,190.776749 151.639679,193.497208 148.825500,193.603256 
	C146.227798,193.701141 143.524460,190.994583 140.456131,189.295349 
	C138.945938,190.465088 136.900620,192.049301 134.488739,193.736389 
z"/>
<path fill="#1594CE" opacity="1.000000" stroke="none" 
	d="
M194.922577,85.325775 
	C189.975983,89.867775 185.187775,94.123558 180.399567,98.379341 
	C180.092255,98.096558 179.784958,97.813774 179.477646,97.530998 
	C181.624695,94.689789 183.771744,91.848587 186.537491,88.188644 
	C182.569916,88.188644 179.572830,88.188644 175.253769,88.188644 
	C181.245728,83.197624 186.163574,79.101303 191.704956,74.485603 
	C188.343857,73.642006 185.623154,72.959137 181.740799,71.984711 
	C187.024506,68.124512 191.432266,64.904274 195.840012,61.684044 
	C196.203918,62.040283 196.567841,62.396526 196.931747,62.752766 
	C195.389328,64.636292 193.846924,66.519821 191.657547,69.193398 
	C195.867477,69.778084 199.436813,70.273804 204.098312,70.921204 
	C198.777039,75.402466 194.302139,79.170937 189.641846,83.095558 
	C191.783417,83.860985 193.432205,84.450272 194.922577,85.325775 
z"/>
<path fill="#1594CF" opacity="1.000000" stroke="none" 
	d="
M111.473099,63.606285 
	C115.151176,66.322639 118.545303,68.831955 122.802780,71.979546 
	C118.952934,72.930351 116.309784,73.583138 112.889542,74.427849 
	C118.282387,78.944511 123.184738,83.050385 128.955124,87.883247 
	C124.978439,87.883247 122.003120,87.883247 117.876099,87.883247 
	C120.611343,91.563271 122.700005,94.373367 124.788666,97.183472 
	C124.500168,97.483917 124.211670,97.784363 123.923164,98.084801 
	C118.995316,93.765083 114.067467,89.445358 108.382904,84.462303 
	C111.078560,84.076027 112.632576,83.853348 115.329544,83.466881 
	C110.285591,79.210800 105.846359,75.464981 100.510918,70.962944 
	C105.032349,70.327492 108.497849,69.840439 113.008698,69.206482 
	C110.408806,66.244972 108.406837,63.964558 106.404877,61.684143 
	C106.579910,61.413471 106.754951,61.142799 106.929985,60.872124 
	C108.349709,61.714497 109.769424,62.556870 111.473099,63.606285 
z"/>
<path fill="#F65F64" opacity="1.000000" stroke="none" 
	d="
M212.348236,139.822784 
	C216.353561,136.766022 220.076416,138.416687 223.417313,140.829300 
	C227.204254,143.564041 228.086975,147.683777 226.881409,151.975296 
	C225.601868,156.530167 222.359665,159.070679 217.647964,159.437500 
	C215.876709,152.882553 214.164047,146.544449 212.348236,139.822784 
z"/>
<path fill="#F65F64" opacity="1.000000" stroke="none" 
	d="
M77.827385,147.463959 
	C80.148293,139.943344 83.943810,137.709869 92.529480,138.603333 
	C90.908974,145.423477 89.292114,152.228302 87.669411,159.057724 
	C81.027428,158.810944 78.029716,155.439590 77.827385,147.463959 
z"/>
<path fill="#FBFCFD" opacity="1.000000" stroke="none" 
	d="
M182.128021,127.177574 
	C183.701630,134.383713 181.041611,139.515518 175.082367,141.381348 
	C169.820999,143.028687 164.136429,140.288956 161.995193,135.073883 
	C159.807480,129.745544 162.190247,123.663536 167.433777,121.192055 
	C172.930511,118.601227 178.293900,120.669960 182.128021,127.177574 
z"/>
<path fill="#FDFDFE" opacity="1.000000" stroke="none" 
	d="
M129.067352,120.792229 
	C136.290268,119.459305 141.613464,122.435577 143.008316,128.259323 
	C144.342499,133.829849 141.570557,139.145554 136.292084,141.138962 
	C131.099792,143.099808 125.294823,140.766464 122.854073,135.737473 
	C120.072830,130.006927 122.208244,124.589882 129.067352,120.792229 
z"/>
<path fill="#FAFBFD" opacity="1.000000" stroke="none" 
	d="
M143.679108,154.842316 
	C149.334213,154.023880 154.845001,153.605774 160.742737,153.158310 
	C160.742737,157.780060 160.742737,161.478714 160.742737,165.524872 
	C155.111557,165.524872 149.714920,165.524872 143.534790,165.524872 
	C143.534790,162.057587 143.534790,158.650116 143.679108,154.842316 
z"/>
<path fill="#FAFBFD" opacity="1.000000" stroke="none" 
	d="
M171.159119,153.515396 
	C174.910263,153.515457 178.201172,153.515457 181.964218,153.515457 
	C181.964218,155.855896 181.964218,157.493820 181.964218,159.131744 
	C181.964218,161.104706 181.964218,163.077667 181.964218,165.826767 
	C176.603439,165.826767 171.661469,165.969894 166.742447,165.697922 
	C165.831635,165.647568 164.783813,164.037491 164.229263,162.931610 
	C163.826767,162.128967 164.128281,160.970566 164.125381,159.970764 
	C164.106873,153.583694 164.107742,153.583694 171.159119,153.515396 
z"/>
<path fill="#FDFDFE" opacity="1.000000" stroke="none" 
	d="
M138.578934,165.691254 
	C133.320618,165.781281 128.522232,165.781281 122.557404,165.781281 
	C122.988472,161.552841 123.373184,157.779205 123.757889,154.005554 
	C129.013947,154.091232 134.270020,154.176910 139.526077,154.262573 
	C139.363678,158.042130 139.201263,161.821671 138.578934,165.691254 
z"/>
</svg>